<?xml version="1.0" encoding="UTF-8"?>
<svg id="Camada_1" xmlns="http://www.w3.org/2000/svg" xmlns:xlink="http://www.w3.org/1999/xlink" viewBox="0 0 800 800">
  <defs>
    <style>
      .cls-1 {
        fill: #e2f434;
      }

      .cls-2 {
        fill: #efefe8;
      }

      .cls-3 {
        fill: url(#Gradiente_sem_nome_3);
      }
    </style>
    <linearGradient id="Gradiente_sem_nome_3" data-name="Gradiente sem nome 3" x1="147.98" y1="510.42" x2="206.11" y2="278.72" gradientUnits="userSpaceOnUse">
      <stop offset="0" stop-color="#ff26f9"/>
      <stop offset=".24" stop-color="#fe30b6"/>
      <stop offset=".62" stop-color="#fe3f55"/>
      <stop offset=".88" stop-color="#fe4917"/>
      <stop offset="1" stop-color="#fe4d00"/>
    </linearGradient>
  </defs>
  <g>
    <path class="cls-2" d="M251.78,322.58c-4.64,44.47-9.28,88.93-13.92,133.4-2.67,25.66-10.75,45.22-24.69,59.44-13.94,14.27-33,22.41-56.73,26.14-23.74,3.78-40.74,1.45-50.59-9.27-9.89-10.64-12.02-29.26-6.94-56.39,8.78-46.97,17.55-93.93,26.33-140.9,4.77-25.4,13.66-46.2,26.27-61.32,12.65-15.08,28.5-23.9,48.08-25.1,19.57-1.15,33.56,5.64,42.44,18.46,8.85,12.91,12.25,31.5,9.75,55.53Z"/>
    <path class="cls-2" d="M253.76,532.41c8.35-92.99,16.69-185.98,25.04-278.97,16.21,1.69,32.43,3.99,48.64,6.65-3.99,75.97-7.99,151.95-11.98,227.92,19.69,1.62,39.37,3.67,59.06,5.84-.2,15.39-.4,30.78-.61,46.18-40.05-3.85-80.1-7.27-120.15-7.62Z"/>
    <path class="cls-2" d="M382.66,540.87c10.2-89.19,18.69-177.79,25.48-265.83,27.5,5.28,55,10.35,82.49,13.92,14.73,88.35,31.13,175.92,49.2,262.58-18.68-.01-37.36-.73-56.04-1.87-2.27-14.29-4.5-28.59-6.68-42.91-11.55-.89-23.1-1.95-34.65-3.1-.72,14.22-1.47,28.45-2.25,42.7-19.18-1.69-38.37-3.62-57.55-5.49ZM445,461.54c8.46.94,16.92,1.83,25.38,2.63-6.54-45.24-12.68-90.64-18.43-136.2-.77-.12-1.53-.23-2.3-.35-1.21,44.53-2.76,89.17-4.66,133.92Z"/>
    <path class="cls-2" d="M558.01,551.33c-9.79-86.16-19.58-172.32-29.38-258.49,16.12,1.14,32.24,1.57,48.36,1.03,4.75,30.15,9.51,60.3,14.26,90.45,8.24-.59,16.48-1.42,24.73-2.51-5.35-29.79-10.7-59.59-16.05-89.38,16.12-1.51,32.24-4.11,48.36-8.05,18.48,80.91,36.96,161.82,55.44,242.72-19.63,6.67-39.27,11.71-58.9,15.42-6.79-37.8-13.57-75.6-20.36-113.4-8.56,1.29-17.11,2.3-25.67,3.07,6.03,38.25,12.06,76.5,18.1,114.75-19.63,2.53-39.27,3.88-58.9,4.37Z"/>
  </g>
  <g>
    <path class="cls-1" d="M140.14,530.08l35.94-78.96c2.18-4.8-2.19-9.98-7.28-8.62l-18.9,5.01c-5.19,1.37-9.58-4-7.2-8.81l25.7-51.98c3.03-6.13-2.35-13.05-9.04-11.63l-20.56,4.38c-3.6.77-6.24-3.31-4.07-6.29l74.88-102.52c.17-.23.52-.03.42.23l-25.86,65.24c-1.94,4.96,3.08,9.92,8.12,8.2l18.22-6.25c5.26-1.81,10.08,3.65,7.64,8.65l-28.72,58.76c-2.35,4.81,2.04,10.16,7.22,8.78l14.29-3.8c5.64-1.5,10.07,4.86,6.71,9.63l-77.51,109.99Z"/>
    <path class="cls-3" d="M214.26,402.51c3.53-.62,6.05,3.34,3.99,6.28l-68.51,100.22,22.3-65.8c1.06-2.95-1.5-5.93-4.57-5.31l-21.71,4.35c-3.28.66-5.88-2.76-4.39-5.75l29.18-58.39c1.49-3.02-1.12-6.42-4.42-5.75l-23.84,4.9c-3.6.73-6.23-3.35-4.06-6.32l68.48-91.53-22.69,57.26c-1.1,3.02,1.59,6.04,4.71,5.31l21.12-5c3.32-.79,6.05,2.66,4.53,5.72l-28.7,56.48c-3.27,4.23-.13,12.32,10.59,8.35l17.97-5.03Z"/>
  </g>
</svg>